<svg viewBox="0 0 50 50" fill="none" xmlns="http://www.w3.org/2000/svg">
<g clip-path="url(#clip0_3701_444)">
<path d="M31.7093 13.1478L24.7487 20.1083L17.7882 13.1478C16.934 12.2936 15.5487 12.2936 14.6946 13.1478L13.1478 14.6946C12.2937 15.5487 12.2937 16.934 13.1478 17.7882L20.1084 24.7487L13.1478 31.7093C12.2937 32.5634 12.2937 33.9488 13.1478 34.8029L14.6946 36.3497C15.5487 37.2038 16.934 37.2038 17.7882 36.3497L24.7487 29.3891L31.7093 36.3497C32.5634 37.2038 33.9488 37.2038 34.8029 36.3497L36.3497 34.8029C37.2038 33.9488 37.2038 32.5634 36.3497 31.7093L29.3891 24.7487L36.3497 17.7882C37.2038 16.934 37.2038 15.5487 36.3497 14.6946L34.8029 13.1478C33.9488 12.2936 32.5634 12.2936 31.7093 13.1478Z" fill="#F9F9F9"/>
</g>
<defs>
<clipPath id="clip0_3701_444">
<rect width="35" height="35" fill="white" transform="translate(0 24.7487) rotate(-45)"/>
</clipPath>
</defs>
</svg>
