<svg width="65" height="65" viewBox="0 0 65 65" fill="none" xmlns="http://www.w3.org/2000/svg">
<rect x="-0.5" y="0.5" width="64" height="64" rx="19.5" transform="matrix(-1 0 0 1 64 0)" fill="#058CD8" stroke="#060606"/>
<path d="M29.394 45.853L30.9116 47.3706C31.5542 48.0132 32.5933 48.0132 33.229 47.3706L46.5181 34.0884C47.1606 33.4458 47.1606 32.4067 46.5181 31.771L33.229 18.4819C32.5864 17.8394 31.5474 17.8394 30.9116 18.4819L29.394 19.9995C28.7446 20.6489 28.7583 21.7085 29.4214 22.3442L37.6587 30.1919H18.0122C17.103 30.1919 16.3716 30.9233 16.3716 31.8325V34.02C16.3716 34.9292 17.103 35.6606 18.0122 35.6606H37.6587L29.4214 43.5083C28.7515 44.144 28.7378 45.2036 29.394 45.853Z" fill="#060606"/>
</svg>
