<svg width="65" height="65" viewBox="0 0 65 65" fill="none" xmlns="http://www.w3.org/2000/svg">
<rect x="0.5" y="0.5" width="64" height="64" rx="19.5" fill="#058CD8" stroke="#060606"/>
<path d="M35.606 45.853L34.0884 47.3706C33.4458 48.0132 32.4067 48.0132 31.771 47.3706L18.4819 34.0884C17.8394 33.4458 17.8394 32.4067 18.4819 31.771L31.771 18.4819C32.4136 17.8394 33.4526 17.8394 34.0884 18.4819L35.606 19.9995C36.2554 20.6489 36.2417 21.7085 35.5786 22.3442L27.3413 30.1919H46.9878C47.897 30.1919 48.6284 30.9233 48.6284 31.8325V34.02C48.6284 34.9292 47.897 35.6606 46.9878 35.6606H27.3413L35.5786 43.5083C36.2485 44.144 36.2622 45.2036 35.606 45.853Z" fill="#060606"/>
</svg>
