<svg width="40" height="40" viewBox="0 0 40 40" fill="none" xmlns="http://www.w3.org/2000/svg">
<circle cx="20" cy="20" r="17.75" stroke="#F9F9F9" stroke-width="4.5"/>
<path d="M15.1672 27.5H11.5391V15.8164H15.1672V27.5ZM13.3512 14.2226C12.191 14.2226 11.25 13.2617 11.25 12.1015C11.25 11.5443 11.4714 11.0098 11.8654 10.6158C12.2595 10.2217 12.7939 10.0004 13.3512 10.0004C13.9084 10.0004 14.4429 10.2217 14.8369 10.6158C15.231 11.0098 15.4523 11.5443 15.4523 12.1015C15.4523 13.2617 14.5109 14.2226 13.3512 14.2226ZM28.7461 27.5H25.1258V21.8125C25.1258 20.457 25.0984 18.7187 23.2395 18.7187C21.3531 18.7187 21.0641 20.1914 21.0641 21.7148V27.5H17.4398V15.8164H20.9195V17.4101H20.9703C21.4547 16.4922 22.6379 15.5234 24.4031 15.5234C28.075 15.5234 28.75 17.9414 28.75 21.082V27.5H28.7461Z" fill="#F9F9F9"/>
</svg>
