<svg width="40" height="40" viewBox="0 0 40 40" fill="none" xmlns="http://www.w3.org/2000/svg">
<circle cx="20" cy="20" r="17.75" stroke="#F9F9F9" stroke-width="4.5"/>
<path d="M27.9233 18.3815C26.3752 18.3852 24.865 17.9024 23.6061 17.0013V23.286C23.6057 24.45 23.2499 25.5861 22.5864 26.5425C21.9228 27.4988 20.9831 28.2298 19.8929 28.6376C18.8027 29.0455 17.6139 29.1108 16.4856 28.8248C15.3573 28.5388 14.3432 27.9152 13.5789 27.0373C12.8145 26.1594 12.3365 25.069 12.2085 23.9121C12.0806 22.7551 12.309 21.5867 12.863 20.563C13.4171 19.5394 14.2705 18.7092 15.3091 18.1837C16.3476 17.6581 17.5219 17.4621 18.6749 17.622V20.7829C18.1473 20.617 17.5808 20.622 17.0562 20.7972C16.5316 20.9725 16.0758 21.309 15.7538 21.7587C15.4319 22.2085 15.2603 22.7484 15.2636 23.3015C15.2668 23.8546 15.4448 24.3925 15.772 24.8384C16.0992 25.2843 16.5589 25.6155 17.0855 25.7845C17.6122 25.9536 18.1787 25.9519 18.7043 25.7797C19.2299 25.6076 19.6877 25.2737 20.0123 24.8259C20.3368 24.378 20.5116 23.8391 20.5116 23.286V11H23.6061C23.604 11.2613 23.6259 11.5223 23.6715 11.7796C23.7791 12.354 24.0026 12.9005 24.3286 13.3855C24.6546 13.8706 25.076 14.284 25.5673 14.6006C26.2661 15.0627 27.0855 15.309 27.9233 15.3088V18.3815Z" fill="#F9F9F9"/>
</svg>
